<?xml version="1.0" encoding="utf-8"?>
<!-- Generator: Adobe Illustrator 16.0.0, SVG Export Plug-In . SVG Version: 6.00 Build 0)  -->
<!DOCTYPE svg PUBLIC "-//W3C//DTD SVG 1.1//EN" "http://www.w3.org/Graphics/SVG/1.1/DTD/svg11.dtd">
<svg version="1.1" id="Layer_1" xmlns="http://www.w3.org/2000/svg" xmlns:xlink="http://www.w3.org/1999/xlink" x="0px" y="0px"
	 width="61px" height="60px" viewBox="89.38 89.88 61 60" enable-background="new 89.38 89.88 61 60" xml:space="preserve">
<path fill="#FFC963" d="M120.141,89.91c-16.552,0-29.97,13.418-29.97,29.97s13.418,29.97,29.97,29.97
	c16.552,0,29.97-13.418,29.97-29.97S136.692,89.91,120.141,89.91z M133.909,116.479c-0.066,0-0.134,0-0.2,0c0,0.467,0,0.934,0,1.4
	c-0.067,0-0.134,0-0.2,0c0,0.267,0,0.533,0,0.8c-0.066,0-0.133,0-0.199,0c0,0.2,0,0.4,0,0.6c-0.067,0-0.134,0-0.201,0
	c0,0.2,0,0.4,0,0.6c-0.066,0-0.133,0-0.199,0c0,0.133,0,0.267,0,0.4c-0.066,0-0.133,0-0.2,0c-0.134,0.4-0.267,0.799-0.4,1.2
	c-0.2,0.133-0.399,0.268-0.6,0.4c-0.2,0.267-0.4,0.533-0.601,0.8c-1.557,1.106-4.271,2.328-6.801,2.4
	c0.125,0.45,0.169,0.495,0.4,0.8c0.066,0,0.133,0,0.2,0c0.278,0.439,0.206,1.059,0.399,1.601c0.067,0,0.135,0,0.201,0
	c0,2.6,0,5.2,0,7.8c0.066,0,0.133,0,0.199,0c0.283,0.593,0.506,0.641,0.6,1.4c-0.399,0.067-0.799,0.134-1.199,0.2
	c0,0.067,0,0.134,0,0.2c-0.733,0-1.467,0-2.2,0c0,0.066,0,0.134,0,0.2c-1.067,0-2.134,0-3.2,0c0-0.066,0-0.134,0-0.2
	c-0.934,0-1.867,0-2.801,0c0-0.066,0-0.133,0-0.2c-1.108-0.31-2.128,0.153-2.8-0.6c-0.067,0-0.133,0-0.2,0
	c-0.106-0.204,0.95-0.898,1-1c0-1.4,0-2.8,0-4.2c-0.8,0.066-1.6,0.133-2.4,0.199c0-0.066,0-0.133,0-0.199
	c-0.867-0.066-1.733-0.133-2.6-0.2c-0.733-0.667-1.467-1.334-2.2-2c-0.067-0.334-0.133-0.667-0.2-1.001
	c-0.655-1.255-1.703-2.588-3-3.199c0-0.134,0-0.268,0-0.4c0.759-0.061,1.186-0.294,2,0c0,0.066,0,0.133,0,0.199c0.2,0,0.4,0,0.6,0
	c0.066,0.134,0.133,0.268,0.2,0.4c0.133,0,0.267,0,0.4,0l0.4,0.4c0,0.133,0,0.267,0,0.4c0.2,0.133,0.4,0.266,0.6,0.4
	c0,0.133,0,0.266,0,0.4c0.333,0.266,0.667,0.533,1,0.799c0.2,0.268,0.4,0.534,0.6,0.801c0.133,0,0.267,0,0.4,0
	c0,0.066,0,0.133,0,0.199c0.24,0.128,1.784,0.51,2.2,0.4c0.273-0.071-0.079-0.152,0.2-0.199c0.4,0,0.8,0,1.2,0
	c0-0.067,0-0.134,0-0.201c0.267-0.066,0.533-0.133,0.8-0.199c0.073-0.699,0.284-1.713,0.601-2.2c0.066,0,0.133,0,0.2,0
	c0.23-0.303,0.284-0.349,0.4-0.8c-1.808-0.061-4.42-0.856-5.601-1.601c-0.066-0.134-0.133-0.267-0.2-0.4
	c-0.267-0.066-0.533-0.134-0.8-0.2c-0.267-0.333-0.533-0.666-0.8-1c-0.2-0.133-0.4-0.267-0.6-0.4c0-0.133,0-0.266,0-0.399l-0.4-0.4
	c0-0.134,0-0.267,0-0.4c-0.067,0-0.133,0-0.2,0c0-0.133,0-0.267,0-0.4c-0.066,0-0.133,0-0.2,0c0-0.133,0-0.267,0-0.4
	c-0.067,0-0.133,0-0.2,0c0-0.267,0-0.533,0-0.8c-0.067,0-0.133,0-0.2,0c0-0.267,0-0.534,0-0.8c-0.067,0-0.133,0-0.2,0
	c0-0.4,0-0.8,0-1.2c-0.169-0.538-0.472-3.191-0.2-4c0.067,0,0.133,0,0.2,0c0.067-0.4,0.133-0.8,0.2-1.2c0.066,0,0.133,0,0.2,0
	c0.133-0.4,0.267-0.8,0.4-1.2c0.067,0,0.133,0,0.2,0c0-0.134,0-0.267,0-0.4c0.133-0.066,0.267-0.133,0.4-0.2c0-0.133,0-0.267,0-0.4
	c0.2-0.133,0.4-0.267,0.6-0.4c-0.159-0.803-0.809-2.921-0.4-4.2c0.067,0,0.133,0,0.2,0c0.067-0.467,0.134-0.934,0.2-1.4
	c0.067,0,0.133,0,0.2,0c0-0.067,0-0.134,0-0.2c2.227,0.041,3.059,0.754,4.4,1.6c0.267,0.066,0.534,0.133,0.8,0.2
	c0.067,0.133,0.133,0.267,0.2,0.4c1.467-0.2,2.934-0.4,4.4-0.6c1.333,0,2.667,0,4,0c0.414,0.118,2.491,0.774,3,0.6
	c0-0.067,0-0.133,0-0.2c0.268-0.067,0.534-0.133,0.801-0.2c0.066-0.134,0.133-0.267,0.199-0.4c0.134,0,0.268,0,0.4,0l0.4-0.4
	c0.133,0,0.267,0,0.4,0c0-0.067,0-0.133,0-0.2c0.133,0,0.266,0,0.399,0c0-0.067,0-0.134,0-0.2c0.601-0.2,1.2-0.4,1.8-0.6
	c0.4,0,0.801,0,1.2,0c0,0.067,0,0.133,0,0.2c0.597,0.598,0.929,3.445,0.601,4.6c-0.067,0-0.134,0-0.2,0c0,0.267,0,0.533,0,0.8
	c-0.067,0-0.134,0-0.2,0c0,0.067,0,0.134,0,0.2c0.133,0.067,0.267,0.133,0.4,0.2c0,0.133,0,0.267,0,0.4
	c0.199,0.133,0.399,0.266,0.6,0.4c0,0.133,0,0.267,0,0.4c0.066,0,0.133,0,0.2,0c0.133,0.4,0.267,0.8,0.399,1.2
	c0.067,0,0.134,0,0.2,0c0,0.2,0,0.4,0,0.6c0.067,0,0.134,0,0.2,0c0,0.267,0,0.533,0,0.8c0.066,0,0.133,0,0.2,0
	C133.909,114.079,133.909,115.28,133.909,116.479z"/>
</svg>
