<?xml version="1.0" encoding="utf-8"?>
<!-- Generator: Adobe Illustrator 16.0.0, SVG Export Plug-In . SVG Version: 6.00 Build 0)  -->
<!DOCTYPE svg PUBLIC "-//W3C//DTD SVG 1.1//EN" "http://www.w3.org/Graphics/SVG/1.1/DTD/svg11.dtd">
<svg version="1.1" id="Layer_1" xmlns="http://www.w3.org/2000/svg" xmlns:xlink="http://www.w3.org/1999/xlink" x="0px" y="0px"
	 width="61px" height="60px" viewBox="89.38 89.88 61 60" enable-background="new 89.38 89.88 61 60" xml:space="preserve">
<circle fill="#FFC963" cx="120.098" cy="119.875" r="29.97"/>
<path fill="#FFFFFF" d="M136.478,127.876c0-5.399,0-10.801,0-16.201c0-3.253,0.083-6.07-1.801-7.401
	c-1.656-1.17-5.251-0.8-8.001-0.8c-6.267,0-12.535,0-18.801,0c-0.384,0.259-1.25,0.343-1.8,0.4c-0.693,0.88-1.829,1.386-2.2,2.6
	c-0.551,1.802-0.2,4.479-0.2,6.601c0,4.467,0,8.935,0,13.401c0,3.684-0.354,7.479,1.8,9.001c2.407,1.7,12.847,0.8,17.001,0.8
	c3.639,0,9.908,0.827,12.201-0.8C136.596,134.115,136.478,131.194,136.478,127.876z M126.076,108.075
	c0.161-0.204,0.071-0.055,0.2-0.4c0.291-0.17,0.573-0.362,0.8-0.6c1.233-0.032,3.771-0.34,4.601,0.2c1.508,0.515,1.072,3.621,1,5.6
	c-0.2,0.134-0.4,0.267-0.6,0.4c-1.135,0.906-4.407,0.323-5.602,0C126.096,111.972,126.064,109.943,126.076,108.075z
	 M113.675,118.076c0.971-3.055,2.675-3.044,5-4.601c3.667-0.113,5.874,0.838,7.2,3c2.359,3.846-0.437,8.297-3.4,9.4
	C117.676,127.665,112.021,123.281,113.675,118.076z M132.876,131.077c-0.16,0.236-0.154,0.336-0.199,0.8
	c-0.292,0.171-0.574,0.362-0.801,0.601c-7.934,0-15.869,0-23.802,0c-1.604-2.494-0.828-11.129-0.8-15.202c1,0,2,0,3,0
	c-0.33,5.496,0.787,8.984,4.2,11.201c0.812,0.527,2.057,0.924,3,1.2c5.872,1.722,10.84-2.366,12.202-6
	c0.756-2.021,0.482-4.282,0.199-6.401c0.934,0,1.867,0,2.801,0C133.56,119.937,132.892,127.675,132.876,131.077z"/>
</svg>
