<?xml version="1.0" encoding="utf-8"?>
<!-- Generator: Adobe Illustrator 16.0.0, SVG Export Plug-In . SVG Version: 6.00 Build 0)  -->
<!DOCTYPE svg PUBLIC "-//W3C//DTD SVG 1.1//EN" "http://www.w3.org/Graphics/SVG/1.1/DTD/svg11.dtd">
<svg version="1.1" id="Layer_1" xmlns="http://www.w3.org/2000/svg" xmlns:xlink="http://www.w3.org/1999/xlink" x="0px" y="0px"
	 width="61px" height="60px" viewBox="89.38 89.88 61 60" enable-background="new 89.38 89.88 61 60" xml:space="preserve">
<path fill="#FFC963" d="M119.88,89.92c-16.552,0-29.97,13.418-29.97,29.97c0,16.552,13.418,29.97,29.97,29.97
	s29.97-13.418,29.97-29.97C149.85,103.338,136.432,89.92,119.88,89.92z M112.112,133.688c-1.8,0-3.601,0-5.4,0
	c0-6.133,0-12.268,0-18.401c5.4-0.084,0,0,5.4-0.084C112.112,121.27,112.112,127.622,112.112,133.688z M109.412,112.015
	c-2.071,0-3.75-1.679-3.75-3.75c0-2.071,1.679-3.75,3.75-3.75c2.071,0,3.75,1.679,3.75,3.75
	C113.162,110.336,111.483,112.015,109.412,112.015z M134.114,133.688c-1.801,0-3.279,0-5.079,0
	c0.022-2.951,0.312-10.99-0.922-12.601c-0.225-0.681-0.512-0.984-1.2-1.2c-1.047-0.752-2.562-0.141-3.4,0.4
	c-3.229,2.083-2.04,8.352-2.2,13.401c-1.866,0-3.734,0-5.601,0c0-6.133,0-12.268,0-18.401c1.867,0,3.734,0,5.601,0
	c0,0.8,0,1.601,0,2.4c1.252-0.853,2.222-2.025,3.8-2.601c0.934-0.34,2.73-0.333,3.4-0.2
	C135.787,116.338,134.286,125.204,134.114,133.688z"/>
</svg>
