<?xml version="1.0" encoding="utf-8"?>
<!-- Generator: Adobe Illustrator 16.0.0, SVG Export Plug-In . SVG Version: 6.00 Build 0)  -->
<!DOCTYPE svg PUBLIC "-//W3C//DTD SVG 1.1//EN" "http://www.w3.org/Graphics/SVG/1.1/DTD/svg11.dtd">
<svg version="1.1" id="Layer_1" xmlns="http://www.w3.org/2000/svg" xmlns:xlink="http://www.w3.org/1999/xlink" x="0px" y="0px"
	 width="61px" height="60px" viewBox="89.38 89.88 61 60" enable-background="new 89.38 89.88 61 60" xml:space="preserve">
<circle fill="#FFC963" cx="120.018" cy="119.88" r="29.97"/>
<path fill="#FFFFFF" d="M102.415,106.279c-0.44,0.417-0.738,0.343-1,1c-0.79,1.262-0.2,5.054-0.2,6.8c0,4.067,0,8.135,0,12.201
	c0,2.158-0.159,4.768,0.2,6.601c2.396,1.117,7.227,0.601,10.601,0.601c5.666,0,11.335,0,17.001,0c3.102,0,6.928,0.217,9.401-0.4
	c0.69-2.754,0.399-7.006,0.399-10.401c0-5.069,0.689-11.642-0.399-16.001c-3.33-0.821-8.405-0.4-12.401-0.4
	C118.15,106.279,110.281,106.279,102.415,106.279z"/>
<path fill="#FFC963" d="M106.615,109.679c8.934,0,17.87,0,26.802,0c0,0.067,0,0.134,0,0.2c-2.908,1.893-5.062,4.931-7.801,7
	c-1.848,1.396-4.203,2.971-5.601,4.8c-0.066-0.066-0.133-0.134-0.2-0.2c-3.523-2.064-5.999-5.777-9.201-8.2
	C109.4,112.36,107.201,111.139,106.615,109.679z"/>
<path fill="#FFC963" d="M104.015,111.479c0.863,0.304,0.979,0.931,1.6,1.4c2.649,2,5.626,5.541,8.401,7c0,0.133,0,0.267,0,0.4
	c-3.682,2.418-6.212,6.514-10.001,8.801C104.015,123.214,104.015,117.346,104.015,111.479z"/>
<path fill="#FFC963" d="M135.617,111.479c0.134,0,0.267,0,0.4,0c0,5.867,0,11.735,0,17.602c-0.067,0-0.134,0-0.2,0
	c-1.19-1.523-3.048-2.828-4.6-4c-0.533-0.601-1.067-1.201-1.601-1.801c-1.175-0.889-3.073-1.925-3.601-3.4
	c1.932-0.978,3.146-2.949,4.801-4.2C132.411,114.474,134.519,113.153,135.617,111.479z"/>
<path fill="#FFC963" d="M116.016,122.08c1.588,0.569,1.812,2.251,3.801,2.4c0.283,0.192,0.654,0.195,1.2,0.2
	c0.618-0.969,1.809-2.223,3-2.601c0.936,1.414,2.648,2.579,4,3.601c1.762,1.331,2.963,3.544,5,4.6c0,0.134,0,0.268,0,0.4
	c-8.666,0-17.335,0-26.002,0c0-0.133,0-0.267,0-0.4c2.069-1.338,3.479-3.545,5.4-5C113.635,124.356,115.172,123.358,116.016,122.08z
	"/>
</svg>
