<?xml version="1.0" encoding="utf-8"?>
<!-- Generator: Adobe Illustrator 16.0.0, SVG Export Plug-In . SVG Version: 6.00 Build 0)  -->
<!DOCTYPE svg PUBLIC "-//W3C//DTD SVG 1.1//EN" "http://www.w3.org/Graphics/SVG/1.1/DTD/svg11.dtd">
<svg version="1.1" id="Layer_1" xmlns="http://www.w3.org/2000/svg" xmlns:xlink="http://www.w3.org/1999/xlink" x="0px" y="0px"
	 width="61px" height="60px" viewBox="89.38 89.88 61 60" enable-background="new 89.38 89.88 61 60" xml:space="preserve">
<path fill="#FFC963" d="M119.88,89.91c-16.552,0-29.97,13.418-29.97,29.97s13.418,29.97,29.97,29.97s29.97-13.418,29.97-29.97
	S136.432,89.91,119.88,89.91z M135.915,111.679c-1.075,0.737-1.619,1.898-2.801,2.6c0.017,9.546-4.995,15.157-12.401,17.401
	c-4.129,1.252-10.739,0.946-13.401-1.6c-0.133,0-0.267,0-0.4,0c0.919-0.587,2.38-0.07,3.6-0.4c1.562-0.422,3.567-1.178,4.6-2.2
	c0.066,0,0.133,0,0.2,0c-0.479-0.721-2.259-0.737-3-1.2c-1.175-0.733-1.473-2.04-2.4-3c0.394-0.267,1.305-0.227,2-0.2
	c-0.566-1.075-2.285-1.405-3-2.4c-0.667-0.928-0.546-2.383-1.2-3.4c0-0.067,0-0.133,0-0.2c0.687,0.085,1.872,0.249,2.4,0.6
	c0.067,0,0.133,0,0.2,0c-0.329-0.761-0.992-0.803-1.4-1.4c-0.872-1.277-1.615-4.878-0.4-6.4c0-0.134,0-0.267,0-0.4
	c0.066,0,0.133,0,0.2,0c2.079,3.375,7.079,6.39,12.4,6.4c-0.105-3.875,1.136-6.189,3.801-7.201c2.43-0.922,5.327,0.222,6.201,1.6
	c1.448-0.049,2.823-0.451,3.6-1.2c0.134,0,0.268,0,0.4,0c-0.266,1.062-1,2.262-2,2.6c0,0.133,0,0.267,0,0.4
	c0.849-0.049,1.693-0.196,2.2-0.6c0.2,0,0.399,0,0.601,0C135.915,111.546,135.915,111.612,135.915,111.679z"/>
</svg>
