<?xml version="1.0" encoding="utf-8"?>
<!-- Generator: Adobe Illustrator 16.0.0, SVG Export Plug-In . SVG Version: 6.00 Build 0)  -->
<!DOCTYPE svg PUBLIC "-//W3C//DTD SVG 1.1//EN" "http://www.w3.org/Graphics/SVG/1.1/DTD/svg11.dtd">
<svg version="1.1" id="Layer_1" xmlns="http://www.w3.org/2000/svg" xmlns:xlink="http://www.w3.org/1999/xlink" x="0px" y="0px"
	 width="61px" height="60px" viewBox="89.38 89.88 61 60" enable-background="new 89.38 89.88 61 60" xml:space="preserve">
<path fill="#FFC963" d="M120.487,89.91c-16.552,0-29.97,13.418-29.97,29.97s13.418,29.97,29.97,29.97s29.97-13.418,29.97-29.97
	S137.039,89.91,120.487,89.91z M135.168,116.479c-2.45,6.407-8.04,13.112-13.401,16.602c-0.601,0.391-1.428,0.391-2,0.8
	c-4.009,0.009-4.896-3.034-6-6.001c-1.564-4.205-2.746-11.493-5.4-14.601c-1.572,0.132-2.104,0.847-3.2,1.4
	c-0.345-0.565-0.779-0.917-1-1.6c-0.246-0.758,1.208-1.608,1.8-2.2c1.481-1.481,2.979-3.072,4.8-4.2c0.861-0.534,2.001-0.61,2.8-1.2
	c1.232-0.018,2.106,0.085,2.8,0.6c1.444,1.07,1.24,3.385,1.8,5.401c1.141,4.106,1.823,8.401,3.4,11.801
	c2.648-0.123,5.897-6.295,5.801-9.601c-0.854-0.932-2.383-2.538-4-1c-0.133,0-0.267,0-0.4,0c0.438-3.471,3.016-5.85,5.801-7
	c0.832-0.344,2.062-0.148,2.801-0.6c2.14,0.379,4.006,0.682,4.599,2.6C137.843,110.077,135.925,114.502,135.168,116.479z"/>
</svg>
