<?xml version="1.0" encoding="utf-8"?>
<!-- Generator: Adobe Illustrator 16.0.0, SVG Export Plug-In . SVG Version: 6.00 Build 0)  -->
<!DOCTYPE svg PUBLIC "-//W3C//DTD SVG 1.1//EN" "http://www.w3.org/Graphics/SVG/1.1/DTD/svg11.dtd">
<svg version="1.1" id="Layer_1" xmlns="http://www.w3.org/2000/svg" xmlns:xlink="http://www.w3.org/1999/xlink" x="0px" y="0px"
	 width="145.44px" height="148.32px" viewBox="0 0 145.44 148.32" enable-background="new 0 0 145.44 148.32" xml:space="preserve">
<path fill-rule="evenodd" clip-rule="evenodd" fill="#FFFFFF" stroke="#FEC86B" stroke-linecap="round" stroke-linejoin="round" stroke-miterlimit="10" d="
	M65.4,81.74c-0.542,0.463-2.347,0.783-3.12,0.239c-2.095-0.646-2.917-3.158-1.92-5.52c1.262-2.987,6.344-6.883,6.72-9.6
	c-0.817-2.083-1.438-4.504-2.16-6.72c-0.688-2.113-0.596-1.419-2.16-6.96c0-1.04-0.603-18.891,0.24-22.8
	c0-1.12,0.696-12.587,2.88-15.6c0.585-0.807,1.527-1.68,2.4-1.68c7.219,0.064,8.266,7.686,10.08,13.2
	c1.314,3.995,4.145,17.939,4.801,20.64c0.57,2.358,1.529,7.098,0.719,10.32c-1.191,4.737-5.076,9.661-8.641,12
	c0.32,0.96,0.641,1.92,0.961,2.88c0.08,0,5.189-4.849,7.68-7.2c1.121-1.059,2.219-2.926,4.801-2.16
	c2.863,0.85,10.6,11.225,2.16,11.76c-0.809-0.08-1.625-0.448-2.16-0.96c-0.795-0.76-0.977-1.44-1.92-2.16
	c-1.619,2.425-7.104,6.093-7.68,8.88c1.107,2.109,1.77,4.84,2.639,7.2c3.471,9.417,4.832,25.024,1.441,36.001
	c-1.635,5.293-2.93,11.336-9.841,11.279c-0.912,0-1.662-0.32-2.399-1.199c-4.324-5.16-8.787-15.24-11.04-22.801
	c-1.152-3.867-1.861-10.16-0.24-14.16c1.967-4.852,4.817-9.355,7.68-13.44c1.143-1.63,2.648-3.088,3.6-5.521
	c-0.263-1.074-0.766-1.544-0.96-2.399L65.4,81.74z M72.84,32.78c1.272,5.189,2.024,10.105,3.36,15.6
	c0.445,1.83,1.312,5.298,0.721,7.68c-0.623,2.507-2.141,3.533-3.841,5.52c-1.087-1.441-1.643-3.838-2.16-6
	c-2.051-8.578-0.818-21.289-0.48-30.72C71.981,26.78,72.193,30.14,72.84,32.78z M75.72,92.062
	c2.219,6.799,3.164,18.648,1.201,26.639c-0.67,2.721-2.447,7.916-2.641,8.16c-1.56-2.213-3.154-5.014-4.32-7.68
	c-1.395-3.189-2.045-6.248-3.12-9.84c-0.692-2.316-1.772-5.953-0.96-8.881c1.487-5.359,5.178-9.68,7.92-13.92
	C74.702,88.154,75.095,90.143,75.72,92.062z"/>
</svg>
