<?xml version="1.0" encoding="utf-8"?>
<!-- Generator: Adobe Illustrator 16.0.0, SVG Export Plug-In . SVG Version: 6.00 Build 0)  -->
<!DOCTYPE svg PUBLIC "-//W3C//DTD SVG 1.1//EN" "http://www.w3.org/Graphics/SVG/1.1/DTD/svg11.dtd">
<svg version="1.1" id="Layer_1" xmlns="http://www.w3.org/2000/svg" xmlns:xlink="http://www.w3.org/1999/xlink" x="0px" y="0px"
	 width="75.6px" height="230.4px" viewBox="28.8 79.2 75.6 230.4" enable-background="new 28.8 79.2 75.6 230.4"
	 xml:space="preserve">
<path fill="none" stroke="#FEC86B" stroke-width="2" stroke-miterlimit="10" d="M61.734,307.615c-2,0-4.006-0.451-5.938-1.357
	c-8.021-3.76-14.619-15.659-19.613-35.366c-0.704-2.776-6.762-27.416-2.927-37.392l1.078-1.949
	c0.092-0.121,8.178-10.9,17.579-22.533c-0.293-0.709-0.588-1.415-0.883-2.114c-1.301,1.562-2.439,2.938-3.361,4.056
	c-2.843,3.453-7.948,3.947-11.401,1.104c-3.454-2.844-3.947-7.947-1.104-11.402c0.911-1.104,4.312-5.225,8.71-10.44
	c-4.998-11.63-8.465-20.276-8.747-26.287c-0.074-1.264-0.987-17.176-0.938-34.247c0.104-35.36,4.146-41.951,7.931-45.353
	c2.459-2.213,5.56-3.141,8.729-2.613c5.948,0.992,11.007,6.714,16.917,19.135c4.028,8.465,8.152,19.613,11.316,30.584
	c2.556,8.863,4.299,16.929,5.043,23.325c1.145,9.853-0.099,15.806-4.027,19.3c-3.353,2.979-10.438,10.947-17.354,18.994
	c0.282,0.656,0.564,1.318,0.853,1.984c3.224-3.69,6.073-6.784,8.52-9.244c2.791-2.809,5.102-4.841,7.061-6.215
	c6.373-4.471,10.848-2.542,12.947-0.993l0.465,0.37l6.3,5.4c3.396,2.911,3.788,8.025,0.878,11.422
	c-2.912,3.395-8.023,3.787-11.422,0.879l-2.244-1.925c-3.574,3.249-9.19,9.507-15.57,17.128c3.683,9.438,7.14,19.412,9.601,29.344
	c5.764,23.24,4.836,41.215-2.84,54.953c-2.57,4.598-5.4,7.73-8.656,9.58C66.433,306.988,64.09,307.615,61.734,307.615z
	 M48.276,239.962c-0.413,3.377,0.204,13.617,3.679,27.213c3.472,13.589,7.449,20.863,9.662,23.438
	c0.406-0.519,0.924-1.276,1.528-2.36c8.684-15.537,3.518-39.377-4.461-61.791C55.155,230.937,51.626,235.513,48.276,239.962z
	 M51.012,156.123l0.295,7.044c0.098,2.333,1.913,7.346,4.359,13.319c4.825-5.492,9.464-10.573,12.611-13.56
	c0.528-3.854-1.179-16.339-6.874-33.882c-3.448-10.623-6.988-18.893-9.844-24.387c-0.646,5.387-1.197,13.885-1.174,27.176
	c0.016,9.396,0.321,18.396,0.576,24.293L51.012,156.123z"/>
</svg>
