<?xml version="1.0" encoding="utf-8"?>
<!-- Generator: Adobe Illustrator 16.0.0, SVG Export Plug-In . SVG Version: 6.00 Build 0)  -->
<!DOCTYPE svg PUBLIC "-//W3C//DTD SVG 1.1//EN" "http://www.w3.org/Graphics/SVG/1.1/DTD/svg11.dtd">
<svg version="1.1" id="Layer_1" xmlns="http://www.w3.org/2000/svg" xmlns:xlink="http://www.w3.org/1999/xlink" x="0px" y="0px"
	 width="38px" height="124px" viewBox="57.72 12.16 38 124" enable-background="new 57.72 12.16 38 124" xml:space="preserve">
<path fill="#FFFFFF" stroke="#FEC86B" stroke-linecap="round" stroke-linejoin="round" stroke-miterlimit="10" d="M65.4,81.74
	c-0.542,0.463-2.347,0.783-3.12,0.239c-2.095-0.646-2.917-3.158-1.92-5.521c1.263-2.986,6.345-6.883,6.721-9.6
	c-0.817-2.083-1.438-4.504-2.16-6.72c-0.688-2.113-0.596-1.42-2.16-6.96c0-1.04-0.603-18.892,0.24-22.801
	c0-1.12,0.695-12.587,2.88-15.6c0.585-0.807,1.527-1.68,2.399-1.68c7.22,0.063,8.267,7.686,10.08,13.199
	c1.314,3.995,4.146,17.939,4.802,20.641c0.569,2.357,1.528,7.098,0.719,10.319c-1.191,4.737-5.076,9.661-8.642,12
	c0.32,0.96,0.642,1.921,0.962,2.881c0.079,0,5.188-4.85,7.68-7.2c1.121-1.06,2.219-2.926,4.801-2.16
	c2.863,0.85,10.601,11.225,2.16,11.76c-0.809-0.08-1.625-0.448-2.16-0.96c-0.795-0.76-0.977-1.439-1.92-2.16
	c-1.619,2.425-7.104,6.094-7.68,8.88c1.106,2.109,1.77,4.841,2.639,7.2c3.471,9.417,4.832,25.024,1.441,36.001
	c-1.636,5.293-2.931,11.336-9.842,11.279c-0.911,0-1.661-0.32-2.398-1.199c-4.324-5.16-8.787-15.24-11.04-22.801
	c-1.152-3.867-1.861-10.16-0.24-14.16c1.967-4.852,4.817-9.354,7.68-13.44c1.144-1.63,2.648-3.088,3.601-5.521
	c-0.263-1.074-0.767-1.544-0.96-2.399L65.4,81.74z M72.84,32.78c1.271,5.188,2.023,10.104,3.36,15.6
	c0.444,1.83,1.312,5.298,0.721,7.681c-0.623,2.507-2.142,3.532-3.841,5.52c-1.087-1.44-1.644-3.838-2.16-6
	c-2.051-8.578-0.818-21.289-0.48-30.72C71.981,26.78,72.193,30.14,72.84,32.78z M75.72,92.062
	c2.219,6.799,3.164,18.647,1.201,26.639c-0.67,2.721-2.447,7.916-2.642,8.16c-1.56-2.213-3.153-5.014-4.319-7.68
	c-1.396-3.189-2.045-6.248-3.12-9.841c-0.692-2.315-1.772-5.952-0.96-8.881c1.487-5.358,5.178-9.68,7.92-13.92
	C74.702,88.154,75.095,90.143,75.72,92.062z"/>
</svg>
