<?xml version="1.0" encoding="utf-8"?>
<!-- Generator: Adobe Illustrator 16.0.0, SVG Export Plug-In . SVG Version: 6.00 Build 0)  -->
<!DOCTYPE svg PUBLIC "-//W3C//DTD SVG 1.1//EN" "http://www.w3.org/Graphics/SVG/1.1/DTD/svg11.dtd">
<svg version="1.1" id="Layer_1" xmlns="http://www.w3.org/2000/svg" xmlns:xlink="http://www.w3.org/1999/xlink" x="0px" y="0px"
	 width="612px" height="792px" viewBox="0 0 612 792" enable-background="new 0 0 612 792" xml:space="preserve">
<path fill-rule="evenodd" clip-rule="evenodd" fill="#FFC963" d="M186.141,276.11c-66.208,0-119.88,53.672-119.88,119.88
	s53.672,119.88,119.88,119.88s119.88-53.672,119.88-119.88S252.349,276.11,186.141,276.11z M241.215,382.388c-0.267,0-0.534,0-0.8,0
	c0,1.867,0,3.734,0,5.601c-0.267,0-0.533,0-0.8,0c0,1.067,0,2.134,0,3.2c-0.267,0-0.534,0-0.8,0c0,0.8,0,1.601,0,2.4
	c-0.267,0-0.533,0-0.8,0c0,0.8,0,1.6,0,2.4c-0.267,0-0.533,0-0.8,0c0,0.533,0,1.067,0,1.6c-0.267,0-0.533,0-0.8,0
	c-0.534,1.6-1.067,3.2-1.601,4.8c-0.8,0.533-1.6,1.067-2.4,1.6c-0.8,1.067-1.601,2.134-2.4,3.2
	c-6.228,4.423-17.083,9.311-27.202,9.601c0.496,1.8,0.674,1.977,1.6,3.2c0.267,0,0.533,0,0.8,0c1.115,1.757,0.825,4.234,1.6,6.4
	c0.267,0,0.534,0,0.8,0c0,10.4,0,20.803,0,31.203c0.267,0,0.533,0,0.8,0c1.133,2.369,2.025,2.562,2.4,5.601
	c-1.6,0.267-3.2,0.534-4.8,0.8c0,0.267,0,0.533,0,0.8c-2.934,0-5.868,0-8.801,0c0,0.267,0,0.534,0,0.8c-4.267,0-8.535,0-12.801,0
	c0-0.267,0-0.534,0-0.8c-3.733,0-7.468,0-11.201,0c0-0.267,0-0.533,0-0.8c-4.435-1.243-8.514,0.612-11.201-2.4
	c-0.267,0-0.533,0-0.8,0c-0.424-0.819,3.8-3.593,4-4c0-5.6,0-11.201,0-16.801c-3.2,0.267-6.401,0.534-9.601,0.8
	c0-0.267,0-0.534,0-0.8c-3.467-0.267-6.935-0.533-10.401-0.8c-2.934-2.667-5.868-5.334-8.801-8c-0.267-1.333-0.534-2.667-0.8-4
	c-2.621-5.021-6.81-10.357-12.001-12.801c0-0.534,0-1.067,0-1.6c3.037-0.242,4.742-1.175,8,0c0,0.267,0,0.533,0,0.8
	c0.8,0,1.601,0,2.4,0c0.267,0.533,0.533,1.067,0.8,1.6c0.533,0,1.066,0,1.6,0l1.6,1.6c0,0.534,0,1.067,0,1.6
	c0.8,0.534,1.6,1.067,2.4,1.601c0,0.533,0,1.066,0,1.6c1.333,1.066,2.667,2.133,4,3.2c0.8,1.066,1.6,2.133,2.4,3.2
	c0.533,0,1.067,0,1.6,0c0,0.267,0,0.533,0,0.8c0.958,0.509,7.136,2.038,8.801,1.601c1.094-0.288-0.315-0.61,0.8-0.8
	c1.6,0,3.201,0,4.801,0c0-0.267,0-0.533,0-0.8c1.066-0.267,2.133-0.533,3.2-0.8c0.293-2.794,1.136-6.851,2.4-8.801
	c0.267,0,0.534,0,0.8,0c0.922-1.21,1.137-1.395,1.6-3.2c-7.232-0.242-17.679-3.422-22.402-6.4c-0.267-0.534-0.534-1.067-0.8-1.601
	c-1.066-0.267-2.133-0.533-3.2-0.8c-1.066-1.333-2.133-2.667-3.2-4c-0.8-0.533-1.6-1.067-2.4-1.6c0-0.533,0-1.067,0-1.6l-1.6-1.6
	c0-0.533,0-1.067,0-1.6c-0.267,0-0.533,0-0.8,0c0-0.533,0-1.067,0-1.6c-0.267,0-0.534,0-0.8,0c0-0.533,0-1.067,0-1.6
	c-0.267,0-0.533,0-0.8,0c0-1.067,0-2.134,0-3.201c-0.267,0-0.534,0-0.8,0c0-1.066,0-2.133,0-3.2c-0.267,0-0.533,0-0.8,0
	c0-1.6,0-3.2,0-4.8c-0.678-2.152-1.888-12.763-0.8-16.001c0.267,0,0.533,0,0.8,0c0.267-1.6,0.534-3.2,0.8-4.8c0.267,0,0.533,0,0.8,0
	c0.533-1.6,1.066-3.2,1.6-4.8c0.267,0,0.533,0,0.8,0c0-0.534,0-1.067,0-1.6c0.533-0.267,1.067-0.534,1.6-0.8c0-0.533,0-1.067,0-1.6
	c0.8-0.533,1.601-1.067,2.4-1.6c-0.637-3.213-3.236-11.686-1.6-16.802c0.267,0,0.533,0,0.8,0c0.267-1.866,0.534-3.733,0.8-5.6
	c0.267,0,0.533,0,0.8,0c0-0.267,0-0.534,0-0.8c8.907,0.164,12.235,3.018,17.601,6.4c1.067,0.267,2.134,0.534,3.201,0.8
	c0.267,0.533,0.533,1.067,0.8,1.6c5.867-0.8,11.735-1.6,17.602-2.4c5.333,0,10.668,0,16.001,0c1.653,0.472,9.965,3.097,12.001,2.4
	c0-0.267,0-0.533,0-0.8c1.067-0.267,2.134-0.534,3.2-0.8c0.267-0.533,0.534-1.067,0.8-1.6c0.533,0,1.067,0,1.6,0l1.6-1.6
	c0.533,0,1.067,0,1.6,0c0-0.267,0-0.534,0-0.8c0.533,0,1.067,0,1.6,0c0-0.267,0-0.533,0-0.8c2.4-0.8,4.801-1.6,7.201-2.4
	c1.6,0,3.2,0,4.8,0c0,0.267,0,0.534,0,0.8c2.385,2.394,3.716,13.782,2.4,18.401c-0.267,0-0.534,0-0.8,0c0,1.067,0,2.134,0,3.2
	c-0.267,0-0.533,0-0.8,0c0,0.267,0,0.534,0,0.8c0.533,0.267,1.067,0.533,1.6,0.8c0,0.533,0,1.066,0,1.6c0.8,0.533,1.6,1.066,2.4,1.6
	c0,0.533,0,1.066,0,1.6c0.267,0,0.533,0,0.8,0c0.533,1.6,1.067,3.2,1.6,4.8c0.267,0,0.534,0,0.8,0c0,0.8,0,1.6,0,2.4
	c0.267,0,0.533,0,0.8,0c0,1.066,0,2.133,0,3.2c0.267,0,0.534,0,0.8,0C241.215,372.787,241.215,377.588,241.215,382.388z"/>
</svg>
