<?xml version="1.0" encoding="utf-8"?>
<!-- Generator: Adobe Illustrator 16.0.0, SVG Export Plug-In . SVG Version: 6.00 Build 0)  -->
<!DOCTYPE svg PUBLIC "-//W3C//DTD SVG 1.1//EN" "http://www.w3.org/Graphics/SVG/1.1/DTD/svg11.dtd">
<svg version="1.1" id="Layer_1" xmlns="http://www.w3.org/2000/svg" xmlns:xlink="http://www.w3.org/1999/xlink" x="0px" y="0px"
	 width="145.44px" height="148.32px" viewBox="0 0 145.44 148.32" enable-background="new 0 0 145.44 148.32" xml:space="preserve">
<circle fill-rule="evenodd" clip-rule="evenodd" fill="#B2822C" cx="71.999" cy="75.321" r="72"/>
<circle fill-rule="evenodd" clip-rule="evenodd" fill="#FFC963" cx="72.001" cy="72" r="72"/>
<path fill-rule="evenodd" clip-rule="evenodd" fill="#B2822C" d="M64.682,83.6c-0.542,0.463-2.347,0.783-3.12,0.24
	c-2.095-0.646-2.917-3.158-1.92-5.52c1.262-2.988,6.344-6.883,6.72-9.601c-0.817-2.083-1.438-4.504-2.16-6.72
	c-0.688-2.113-0.596-1.419-2.16-6.96c0-1.04-0.603-18.891,0.24-22.8c0-1.12,0.696-12.587,2.88-15.6c0.585-0.807,1.527-1.68,2.4-1.68
	c7.218,0.064,8.266,7.686,10.08,13.2c1.314,3.995,4.146,17.939,4.801,20.64c0.571,2.358,1.529,7.098,0.72,10.32
	c-1.191,4.737-5.076,9.661-8.641,12c0.32,0.96,0.641,1.92,0.961,2.88c0.08,0,4.939-5.146,7.68-7.2c1.098-0.823,2.219-2.926,4.8-2.16
	c2.863,0.85,10.6,11.226,2.16,11.761c-0.808-0.08-1.625-0.449-2.16-0.961c-0.795-0.76-0.977-1.439-1.92-2.16
	c-1.618,2.425-7.104,6.093-7.68,8.88c1.108,2.109,1.771,4.84,2.64,7.199c3.47,9.416,4.831,25.025,1.44,36
	c-1.635,5.295-2.93,11.338-9.841,11.279c-0.912,0.002-1.662-0.318-2.399-1.199c-4.324-5.16-8.787-15.238-11.04-22.801
	c-1.152-3.867-1.861-10.16-0.24-14.158c1.967-4.854,4.817-9.355,7.68-13.441c1.143-1.629,2.648-3.088,3.6-5.52
	c-0.263-1.074-0.766-1.545-0.96-2.4 M72.122,34.64c1.271,5.189,2.024,10.105,3.36,15.6c0.444,1.83,1.312,5.298,0.72,7.68
	c-0.623,2.507-2.141,3.533-3.84,5.52c-1.087-1.441-1.643-3.838-2.16-6c-2.051-8.578-0.818-21.289-0.48-30.72
	C71.262,28.641,71.475,32,72.122,34.64z M75.001,93.92c2.218,6.801,3.164,18.648,1.2,26.639c-0.669,2.721-2.447,7.916-2.64,8.16
	c-1.561-2.211-3.155-5.012-4.32-7.68c-1.395-3.189-2.045-6.246-3.12-9.84c-0.692-2.314-1.772-5.953-0.96-8.879
	c1.487-5.361,5.178-9.68,7.92-13.92C73.983,90.014,74.376,92.002,75.001,93.92z"/>
<path fill-rule="evenodd" clip-rule="evenodd" fill="#FFFFFF" d="M64.682,81.6c-0.542,0.463-2.347,0.783-3.12,0.24
	c-2.095-0.646-2.917-3.158-1.92-5.52c1.262-2.988,6.344-6.883,6.72-9.601c-0.817-2.083-1.438-4.504-2.16-6.72
	c-0.688-2.113-0.596-1.419-2.16-6.96c0-1.04-0.603-18.891,0.24-22.8c0-1.12,0.696-12.587,2.88-15.6c0.585-0.807,1.527-1.68,2.4-1.68
	c7.218,0.064,8.266,7.686,10.08,13.2c1.314,3.995,4.146,17.939,4.801,20.64c0.571,2.358,1.529,7.098,0.72,10.32
	c-1.191,4.737-5.076,9.661-8.641,12c0.32,0.96,0.641,1.92,0.961,2.88c0.08,0,4.939-5.146,7.68-7.2c1.098-0.823,2.219-2.926,4.8-2.16
	c2.863,0.85,10.6,11.225,2.16,11.761c-0.808-0.08-1.625-0.449-2.16-0.96c-0.795-0.76-0.977-1.44-1.92-2.16
	c-1.618,2.425-7.104,6.093-7.68,8.88c1.108,2.109,1.771,4.84,2.64,7.199c3.47,9.416,4.831,25.025,1.44,36
	c-1.635,5.295-2.93,11.338-9.841,11.279c-0.912,0.002-1.662-0.318-2.399-1.199c-4.324-5.16-8.787-15.238-11.04-22.801
	c-1.152-3.867-1.861-10.16-0.24-14.158c1.967-4.854,4.817-9.355,7.68-13.441c1.143-1.629,2.648-3.088,3.6-5.52
	c-0.263-1.074-0.766-1.545-0.96-2.4 M72.122,32.64c1.271,5.189,2.024,10.105,3.36,15.6c0.444,1.83,1.312,5.298,0.72,7.68
	c-0.623,2.507-2.141,3.533-3.84,5.52c-1.087-1.441-1.643-3.838-2.16-6c-2.051-8.578-0.818-21.289-0.48-30.72
	C71.262,26.641,71.475,30,72.122,32.64z M75.001,91.92c2.218,6.801,3.164,18.648,1.2,26.639c-0.669,2.721-2.447,7.916-2.64,8.16
	c-1.561-2.211-3.155-5.012-4.32-7.68c-1.395-3.189-2.045-6.246-3.12-9.84c-0.692-2.314-1.772-5.953-0.96-8.879
	c1.487-5.361,5.178-9.68,7.92-13.92C73.983,88.014,74.376,90.002,75.001,91.92z"/>
</svg>
